<svg version="1.1" viewBox="0.0 0.0 369.1968503937008 108.39370078740157" fill="none" stroke="none" stroke-linecap="square" stroke-miterlimit="10" xmlns:xlink="http://www.w3.org/1999/xlink" xmlns="http://www.w3.org/2000/svg"><clipPath id="p.0"><path d="m0 0l369.19684 0l0 108.3937l-369.19684 0l0 -108.3937z" clip-rule="nonzero"/></clipPath><g clip-path="url(#p.0)"><path fill="#000000" fill-opacity="0.0" d="m0 0l369.19684 0l0 108.3937l-369.19684 0z" fill-rule="evenodd"/><path fill="#000000" fill-opacity="0.0" d="m259.63254 34.779526l38.86615 0" fill-rule="evenodd"/><path stroke="#000000" stroke-width="1.0" stroke-linejoin="round" stroke-linecap="butt" d="m265.63254 34.779526l32.86615 0" fill-rule="evenodd"/><path fill="#000000" stroke="#000000" stroke-width="1.0" stroke-linecap="butt" d="m265.63254 33.127796l-4.538086 1.6517296l4.538086 1.6517334z" fill-rule="evenodd"/><path fill="#d0e0e3" d="m100.333336 4.6692915l60.220467 0l0 60.22047l-60.220467 0z" fill-rule="evenodd"/><path stroke="#000000" stroke-width="1.0" stroke-linejoin="round" stroke-linecap="butt" d="m100.333336 4.6692915l60.220467 0l0 60.22047l-60.220467 0z" fill-rule="evenodd"/><path fill="#000000" d="m110.69271 41.699528l0 -13.359377l5.015625 0q1.53125 0 2.453125 0.40625q0.921875 0.40625 1.4375 1.25q0.53125 0.84375 0.53125 1.765625q0 0.8593769 -0.46875 1.6250019q-0.453125 0.75 -1.390625 1.203125q1.203125 0.359375 1.859375 1.21875q0.65625 0.859375 0.65625 2.015625q0 0.9375 -0.40625 1.75q-0.390625 0.796875 -0.984375 1.234375q-0.578125 0.4375 -1.453125 0.671875q-0.875 0.21875 -2.15625 0.21875l-5.09375 0zm1.78125 -7.75l2.875 0q1.1875 0 1.6875 -0.140625q0.671875 -0.203125 1.015625 -0.671875q0.34375 -0.46875 0.34375 -1.1718769q0 -0.65625 -0.328125 -1.15625q-0.3125 -0.515625 -0.90625 -0.703125q-0.59375 -0.1875 -2.03125 -0.1875l-2.65625 0l0 4.031252zm0 6.171875l3.3125 0q0.859375 0 1.203125 -0.0625q0.609375 -0.109375 1.015625 -0.359375q0.421875 -0.265625 0.6875 -0.75q0.265625 -0.484375 0.265625 -1.125q0 -0.75 -0.390625 -1.296875q-0.375 -0.546875 -1.0625 -0.765625q-0.671875 -0.234375 -1.953125 -0.234375l-3.078125 0l0 4.59375z" fill-rule="nonzero"/><path fill="#cfe2f3" d="m0 4.6692915l60.220474 0l0 60.22047l-60.220474 0z" fill-rule="evenodd"/><path stroke="#000000" stroke-width="1.0" stroke-linejoin="round" stroke-linecap="butt" d="m0 4.6692915l60.220474 0l0 60.22047l-60.220474 0z" fill-rule="evenodd"/><path fill="#000000" d="m8.96875 41.699528l5.125 -13.359377l1.90625 0l5.46875 13.359377l-2.015625 0l-1.546875 -4.046875l-5.59375 0l-1.46875 4.046875l-1.875 0zm3.859375 -5.484375l4.53125 0l-1.40625 -3.703125q-0.625 -1.6875019 -0.9375 -2.765627q-0.265625 1.28125 -0.71875 2.546877l-1.46875 3.921875z" fill-rule="nonzero"/><path fill="#fce5cd" d="m298.4908 4.6692915l60.22046 0l0 60.22047l-60.22046 0z" fill-rule="evenodd"/><path stroke="#000000" stroke-width="1.0" stroke-linejoin="round" stroke-linecap="butt" d="m298.4908 4.6692915l60.22046 0l0 60.22047l-60.22046 0z" fill-rule="evenodd"/><path fill="#000000" d="m308.9283 41.699528l0 -13.359377l4.609375 0q1.546875 0 2.375 0.203125q1.140625 0.25 1.953125 0.953125q1.0625 0.890625 1.578125 2.28125q0.53125 1.3906269 0.53125 3.171877q0 1.515625 -0.359375 2.703125q-0.359375 1.171875 -0.921875 1.9375q-0.546875 0.765625 -1.203125 1.21875q-0.65625 0.4375 -1.59375 0.671875q-0.9375 0.21875 -2.140625 0.21875l-4.828125 0zm1.765625 -1.578125l2.859375 0q1.3125 0 2.0625 -0.234375q0.75 -0.25 1.203125 -0.703125q0.625 -0.625 0.96875 -1.6875q0.359375 -1.0625 0.359375 -2.578125q0 -2.09375 -0.6875 -3.218752q-0.6875 -1.125 -1.671875 -1.5q-0.703125 -0.28125 -2.28125 -0.28125l-2.8125 0l0 10.203127z" fill-rule="nonzero"/><path fill="#000000" fill-opacity="0.0" d="m60.220474 34.779526l40.125984 0" fill-rule="evenodd"/><path stroke="#000000" stroke-width="1.0" stroke-linejoin="round" stroke-linecap="butt" d="m66.220474 34.779526l34.125984 0" fill-rule="evenodd"/><path fill="#000000" stroke="#000000" stroke-width="1.0" stroke-linecap="butt" d="m66.220474 33.127796l-4.538101 1.6517296l4.538101 1.6517334z" fill-rule="evenodd"/><path fill="#d0e0e3" d="m199.41208 4.6692915l60.22046 0l0 60.22047l-60.22046 0z" fill-rule="evenodd"/><path stroke="#000000" stroke-width="1.0" stroke-linejoin="round" stroke-linecap="butt" d="m199.41208 4.6692915l60.22046 0l0 60.22047l-60.22046 0z" fill-rule="evenodd"/><path fill="#000000" d="m219.38083 37.012028l1.765625 0.453125q-0.5625 2.171875 -2.0 3.328125q-1.4375 1.140625 -3.53125 1.140625q-2.15625 0 -3.515625 -0.875q-1.34375 -0.890625 -2.0625 -2.546875q-0.703125 -1.671875 -0.703125 -3.59375q0 -2.078125 0.796875 -3.625002q0.796875 -1.5625 2.265625 -2.359375q1.484375 -0.8125 3.25 -0.8125q2.0 0 3.359375 1.015625q1.375 1.015625 1.90625 2.875002l-1.734375 0.40625q-0.46875 -1.4531269 -1.359375 -2.109377q-0.875 -0.671875 -2.203125 -0.671875q-1.546875 0 -2.578125 0.734375q-1.03125 0.734375 -1.453125 1.9843769q-0.421875 1.234375 -0.421875 2.5625q0 1.703125 0.5 2.96875q0.5 1.265625 1.546875 1.90625q1.046875 0.625 2.265625 0.625q1.484375 0 2.515625 -0.859375q1.03125 -0.859375 1.390625 -2.546875z" fill-rule="nonzero"/><path fill="#000000" fill-opacity="0.0" d="m160.5538 34.779526l38.23622 0.3149643" fill-rule="evenodd"/><path stroke="#000000" stroke-width="1.0" stroke-linejoin="round" stroke-linecap="butt" d="m166.5536 34.82895l32.23642 0.26554108" fill-rule="evenodd"/><path fill="#000000" stroke="#000000" stroke-width="1.0" stroke-linecap="butt" d="m166.5672 33.177273l-4.551544 1.614296l4.524338 1.6890564z" fill-rule="evenodd"/><path fill="#ffffff" d="m163.62352 56.404118l0 0c0 -8.706097 7.3256073 -15.763779 16.362213 -15.763779l0 0c4.3395233 0 8.501312 1.66082 11.569824 4.6171036c3.0684967 2.9562798 4.7923737 6.9658585 4.7923737 11.146675l0 0c0 8.706097 -7.3256073 15.7637825 -16.362198 15.7637825l0 0c-9.036606 0 -16.362213 -7.057686 -16.362213 -15.7637825z" fill-rule="evenodd"/><path stroke="#000000" stroke-width="1.0" stroke-linejoin="round" stroke-linecap="butt" d="m163.62352 56.404118l0 0c0 -8.706097 7.3256073 -15.763779 16.362213 -15.763779l0 0c4.3395233 0 8.501312 1.66082 11.569824 4.6171036c3.0684967 2.9562798 4.7923737 6.9658585 4.7923737 11.146675l0 0c0 8.706097 -7.3256073 15.7637825 -16.362198 15.7637825l0 0c-9.036606 0 -16.362213 -7.057686 -16.362213 -15.7637825z" fill-rule="evenodd"/><path fill="#cccccc" d="m167.21815 66.262695l0 0c-3.9352112 -4.7304077 -4.7061462 -11.215824 -1.9829102 -16.680904c2.723236 -5.4650803 8.458115 -8.941452 14.750488 -8.941452l0 15.763779z" fill-rule="evenodd"/><path stroke="#000000" stroke-width="1.0" stroke-linejoin="round" stroke-linecap="butt" d="m167.21815 66.262695l0 0c-3.9352112 -4.7304077 -4.7061462 -11.215824 -1.9829102 -16.680904c2.723236 -5.4650803 8.458115 -8.941452 14.750488 -8.941452l0 15.763779z" fill-rule="evenodd"/><path fill="#ffffff" d="m262.70227 56.404118l0 0c0 -8.706097 7.325592 -15.763779 16.362183 -15.763779l0 0c4.3395386 0 8.501343 1.66082 11.569824 4.6171036c3.068512 2.9562798 4.792389 6.9658585 4.792389 11.146675l0 0c0 8.706097 -7.325592 15.7637825 -16.362213 15.7637825l0 0c-9.036591 0 -16.362183 -7.057686 -16.362183 -15.7637825z" fill-rule="evenodd"/><path stroke="#000000" stroke-width="1.0" stroke-linejoin="round" stroke-linecap="butt" d="m262.70227 56.404118l0 0c0 -8.706097 7.325592 -15.763779 16.362183 -15.763779l0 0c4.3395386 0 8.501343 1.66082 11.569824 4.6171036c3.068512 2.9562798 4.792389 6.9658585 4.792389 11.146675l0 0c0 8.706097 -7.325592 15.7637825 -16.362213 15.7637825l0 0c-9.036591 0 -16.362183 -7.057686 -16.362183 -15.7637825z" fill-rule="evenodd"/><path fill="#cccccc" d="m269.30008 69.05322l0 0c-5.6610107 -4.0561676 -7.986023 -11.151394 -5.768585 -17.603851c2.2174683 -6.4524536 8.478027 -10.809032 15.532959 -10.809032l0 15.763779z" fill-rule="evenodd"/><path stroke="#000000" stroke-width="1.0" stroke-linejoin="round" stroke-linecap="butt" d="m269.30008 69.05322l0 0c-5.6610107 -4.0561676 -7.986023 -11.151394 -5.768585 -17.603851c2.2174683 -6.4524536 8.478027 -10.809032 15.532959 -10.809032l0 15.763779z" fill-rule="evenodd"/><path fill="#ffffff" d="m63.917484 56.404118l0 0c0 -8.706097 7.325611 -15.763779 16.362202 -15.763779l0 0c4.339531 0 8.50132 1.66082 11.569832 4.6171036c3.0685043 2.9562798 4.7923737 6.9658585 4.7923737 11.146675l0 0c0 8.706097 -7.3256073 15.7637825 -16.362206 15.7637825l0 0c-9.036591 0 -16.362202 -7.057686 -16.362202 -15.7637825z" fill-rule="evenodd"/><path stroke="#000000" stroke-width="1.0" stroke-linejoin="round" stroke-linecap="butt" d="m63.917484 56.404118l0 0c0 -8.706097 7.325611 -15.763779 16.362202 -15.763779l0 0c4.339531 0 8.50132 1.66082 11.569832 4.6171036c3.0685043 2.9562798 4.7923737 6.9658585 4.7923737 11.146675l0 0c0 8.706097 -7.3256073 15.7637825 -16.362206 15.7637825l0 0c-9.036591 0 -16.362202 -7.057686 -16.362202 -15.7637825z" fill-rule="evenodd"/><path fill="#cccccc" d="m63.919807 56.66987l0 0c-0.073963165 -4.22628 1.6168823 -8.304127 4.6929398 -11.318069c3.0760574 -3.0139465 7.279602 -4.71146 11.666939 -4.71146l0 15.763779z" fill-rule="evenodd"/><path stroke="#000000" stroke-width="1.0" stroke-linejoin="round" stroke-linecap="butt" d="m63.919807 56.66987l0 0c-0.073963165 -4.22628 1.6168823 -8.304127 4.6929398 -11.318069c3.0760574 -3.0139465 7.279602 -4.71146 11.666939 -4.71146l0 15.763779z" fill-rule="evenodd"/><path fill="#000000" fill-opacity="0.0" d="m303.42664 69.22939l-16.073578 16.656456l-4.914734 -4.9641876" fill-rule="evenodd"/><path stroke="#000000" stroke-width="4.0" stroke-linejoin="round" stroke-linecap="butt" d="m303.42664 69.22939l-16.073578 16.656456l-4.914734 -4.9641876" fill-rule="evenodd"/><path fill="#000000" fill-opacity="0.0" d="m204.3479 69.22939l-16.073578 16.656456l-4.914749 -4.9641876" fill-rule="evenodd"/><path stroke="#000000" stroke-width="4.0" stroke-linejoin="round" stroke-linecap="butt" d="m204.3479 69.22939l-16.073578 16.656456l-4.914749 -4.9641876" fill-rule="evenodd"/><path fill="#000000" fill-opacity="0.0" d="m105.269165 69.22939l-16.073578 16.656456l-4.914749 -4.9641876" fill-rule="evenodd"/><path stroke="#000000" stroke-width="4.0" stroke-linejoin="round" stroke-linecap="butt" d="m105.269165 69.22939l-16.073578 16.656456l-4.914749 -4.9641876" fill-rule="evenodd"/><path fill="#000000" fill-opacity="0.0" d="m60.221786 -9.191601E-4l40.125984 0l0 31.52756l-40.125984 0z" fill-rule="evenodd"/><path fill="#000000" d="m75.48764 22.682858l0 -11.09375l-3.953125 0l0 -2.265625l10.609375 0l0 2.265625l-3.953125 0l0 11.09375l-2.703125 0z" fill-rule="nonzero"/><path fill="#000000" d="m88.83675 22.964108l-1.65625 0.171875q-0.0625 -0.5 -0.3125 -0.734375q-0.25 -0.25 -0.65625 -0.25q-0.546875 0 -0.921875 0.484375q-0.375 0.484375 -0.46875 2.015625q0.640625 -0.75 1.578125 -0.75q1.078125 0 1.828125 0.8125q0.765625 0.8125 0.765625 2.109375q0 1.359375 -0.796875 2.1875q-0.796875 0.828125 -2.0625 0.828125q-1.34375 0 -2.21875 -1.046875q-0.859375 -1.046875 -0.859375 -3.4375q0 -2.453125 0.90625 -3.53125q0.90625 -1.078125 2.34375 -1.078125q1.015625 0 1.671875 0.578125q0.671875 0.5625 0.859375 1.640625zm-3.875 3.71875q0 0.828125 0.375 1.28125q0.390625 0.453125 0.890625 0.453125q0.46875 0 0.78125 -0.359375q0.3125 -0.375 0.3125 -1.21875q0 -0.875 -0.34375 -1.28125q-0.328125 -0.40625 -0.84375 -0.40625q-0.484375 0 -0.828125 0.390625q-0.34375 0.390625 -0.34375 1.140625z" fill-rule="nonzero"/><path fill="#000000" fill-opacity="0.0" d="m159.92258 2.7183073l40.125977 0l0 31.527557l-40.125977 0z" fill-rule="evenodd"/><path fill="#000000" d="m175.18843 25.402084l0 -11.09375l-3.953125 0l0 -2.265625l10.609375 0l0 2.265625l-3.953125 0l0 11.09375l-2.703125 0z" fill-rule="nonzero"/><path fill="#000000" d="m182.77191 30.10521l1.703125 -0.171875q0.078125 0.578125 0.4375 0.921875q0.359375 0.328125 0.828125 0.328125q0.53125 0 0.890625 -0.421875q0.375 -0.4375 0.375 -1.3125q0 -0.828125 -0.375 -1.234375q-0.359375 -0.40625 -0.9375 -0.40625q-0.734375 0 -1.328125 0.640625l-1.375 -0.1875l0.875 -4.640625l4.5 0l0 1.59375l-3.21875 0l-0.265625 1.515625q0.578125 -0.28125 1.171875 -0.28125q1.140625 0 1.921875 0.828125q0.796875 0.8125 0.796875 2.140625q0 1.09375 -0.640625 1.953125q-0.875 1.1875 -2.421875 1.1875q-1.21875 0 -2.0 -0.65625q-0.78125 -0.671875 -0.9375 -1.796875z" fill-rule="nonzero"/><path fill="#000000" fill-opacity="0.0" d="m258.99606 2.7196198l40.125977 0l0 31.527557l-40.125977 0z" fill-rule="evenodd"/><path fill="#000000" d="m274.26193 25.403397l0 -11.09375l-3.953125 0l0 -2.265625l10.609375 0l0 2.265625l-3.953125 0l0 11.09375l-2.703125 0z" fill-rule="nonzero"/><path fill="#000000" d="m285.17352 32.403397l0 -1.796875l-3.640625 0l0 -1.484375l3.859375 -5.65625l1.4375 0l0 5.640625l1.09375 0l0 1.5l-1.09375 0l0 1.796875l-1.65625 0zm0 -3.296875l0 -3.03125l-2.046875 3.03125l2.046875 0z" fill-rule="nonzero"/></g></svg>